HIERARCHY
ROOT Hips
{
  OFFSET -35.4901 99.2528 17.4586
  CHANNELS 6 Xposition Yposition Zposition Zrotation Xrotation Yrotation
  JOINT LeftUpLeg
  {
    OFFSET 8.64259 1.95398 -2.38835
    CHANNELS 3 Zrotation Xrotation Yrotation
    JOINT LeftLeg
    {
      OFFSET 43.7702 0 0
      CHANNELS 3 Zrotation Xrotation Yrotation
      JOINT LeftFoot
      {
        OFFSET 40.6238 0 0
        CHANNELS 3 Zrotation Xrotation Yrotation
        JOINT LeftToeBase
        {
          OFFSET 12.7242 0 0
          CHANNELS 3 Zrotation Xrotation Yrotation
          End Site
          {
            OFFSET 0 0 0
          }
        }
      }
    }
  }
  JOINT RightUpLeg
  {
    OFFSET -8.2249 1.95398 -2.59336
    CHANNELS 3 Zrotation Xrotation Yrotation
    JOINT RightLeg
    {
      OFFSET 43.5653 0 0
      CHANNELS 3 Zrotation Xrotation Yrotation
      JOINT RightFoot
      {
        OFFSET 40.6238 0 0
        CHANNELS 3 Zrotation Xrotation Yrotation
        JOINT RightToeBase
        {
          OFFSET 12.7242 0 0
          CHANNELS 3 Zrotation Xrotation Yrotation
          End Site
          {
            OFFSET 0 0 0
          }
        }
      }
    }
  }
  JOINT Spine
  {
    OFFSET 0.165834 0.87714 6.61349
    CHANNELS 3 Zrotation Xrotation Yrotation
    JOINT Spine1
    {
      OFFSET 7.38963 1.71661e-005 0
      CHANNELS 3 Zrotation Xrotation Yrotation
      JOINT Spine2
      {
        OFFSET 11.9445 1.14441e-005 0
        CHANNELS 3 Zrotation Xrotation Yrotation
        JOINT Spine3
        {
          OFFSET 14.7254 4.19617e-005 0
          CHANNELS 3 Zrotation Xrotation Yrotation
          JOINT Spine4
          {
            OFFSET 10.9679 0 0
            CHANNELS 3 Zrotation Xrotation Yrotation
            JOINT RightShoulder
            {
              OFFSET 2.46616 -1.6653 3.69651
              CHANNELS 3 Zrotation Xrotation Yrotation
              JOINT RightArm
              {
                OFFSET 13.0012 0 0
                CHANNELS 3 Zrotation Xrotation Yrotation
                JOINT RightForeArm
                {
                  OFFSET 28.7848 1.52588e-005 0
                  CHANNELS 3 Zrotation Xrotation Yrotation
                  JOINT RightHand
                  {
                    OFFSET 26.5688 1.52588e-005 0
                    CHANNELS 3 Zrotation Xrotation Yrotation
                    End Site
                    {
                      OFFSET 0 0 0
                    }
                  }
                }
              }
            }
            JOINT LeftShoulder
            {
              OFFSET 2.38034 -1.29275 -3.7523
              CHANNELS 3 Zrotation Xrotation Yrotation
              JOINT LeftArm
              {
                OFFSET 16.3182 6.10351e-005 0
                CHANNELS 3 Zrotation Xrotation Yrotation
                JOINT LeftForeArm
                {
                  OFFSET 27.0901 0 0
                  CHANNELS 3 Zrotation Xrotation Yrotation
                  JOINT LeftHand
                  {
                    OFFSET 24.5451 1.52588e-005 0
                    CHANNELS 3 Zrotation Xrotation Yrotation
                    End Site
                    {
                      OFFSET 0 0 0
                    }
                  }
                }
              }
            }
            JOINT Neck
            {
              OFFSET 5.0226 -0.0266342 0
              CHANNELS 3 Zrotation Xrotation Yrotation
              JOINT Head
              {
                OFFSET 6.69364 2.86102e-005 0
                CHANNELS 3 Zrotation Xrotation Yrotation
                End Site
                {
                  OFFSET 0 0 0
                }
              }
            }
          }
        }
      }
    }
  }
}
MOTION
Frames:	12
Frame Time:	0.0416667
-50.0219 80.2943 16.1883 -81.7398 7.42829 -105.795 -173.725 11.1913 98.1432 -81.2507 26.2791 9.28046 60.7197 0.586025 3.03354 35.7715 2.89375 -6.37166 166.198 24.4477 103.121 -48.8691 -2.27541 8.70431 111.077 -22.6346 2.81754 -5.97952 -5.2649 9.7233 0.487449 7.96459 -88.8523 10.9255 1.50142 2.14151 -0.746235 1.59422 2.07337 -23.2697 0.788631 2.49354 -3.25706 0.788646 2.49354 89.25 -23.3722 -111.213 40.8127 -23.4111 20.223 -33.0315 -8.45452 -74.9555 -31.9694 3.54077 -21.781 -84.316 -50.7533 87.3601 7.09545 1.41434 -21.06 44.1977 -19.1326 -98.8933 6.88485 -1.0526 -16.2095 22.1568 -3.23295 12.3063 -6.03311 -6.62271 -16.0611 
-54.2306 79.2173 16.7748 -81.7576 12.6286 -105.238 -173.225 19.5629 98.715 -94.1838 12.8795 8.11647 64.2033 1.91943 4.18116 34.2593 2.7122 -5.68413 168.256 20.9829 103.492 -51.6987 -3.4719 6.86193 115.704 -24.8777 3.53394 -9.29738 -4.49508 8.51915 0.942439 8.17415 -89.2049 10.5116 2.2424 1.37965 -1.1581 2.30095 1.27958 -23.6975 1.72417 1.98978 -3.68482 1.72413 1.98978 90.3662 -23.5717 -108.682 35.1414 -20.0629 10.7303 -33.7582 -6.52905 -77.3604 -31.1669 3.23587 -21.0359 -83.5966 -54.2845 88.7937 7.03037 9.06552 -13.0452 44.7619 -18.2518 -95.7633 6.04971 -0.950226 -16.0032 22.3405 -4.43748 15.7554 -5.32482 -9.03135 -16.5553 
-58.715 78.3944 17.2624 -79.8698 19.0052 -104.661 -172.148 30.5632 99.1712 -105.058 4.13691 7.50369 67.4192 3.2456 6.3553 30.948 4.17515 -7.55649 171.151 18.1633 103.574 -53.478 -3.56109 5.08728 119.176 -24.3592 7.28983 -4.76169 -3.4973 7.44653 1.38912 8.32404 -89.5489 10.2192 2.97384 0.642337 -1.44842 2.99922 0.51071 -24.005 2.6432 1.50694 -3.99234 2.64324 1.50694 90.9436 -22.9381 -107.698 29.0675 -13.87 -0.200089 -37.6718 -5.89294 -81.058 -30.1701 2.67148 -19.9205 -83.2561 -56.7801 89.5093 2.91055 13.0728 -1.29278 45.7909 -17.7291 -93.8236 3.9265 -0.743064 -16.1872 25.8021 -3.92332 17.673 -5.65127 -9.67976 -15.4797 
-63.7286 77.984 17.2546 -77.7618 24.5519 -106.419 -170.622 41.301 96.8229 -112.039 3.84932 7.40201 71.2919 5.58409 9.64303 27.1708 5.2459 -8.41638 173.151 14.6431 101.03 -53.519 -3.75594 3.23004 123.345 -24.2545 10.3364 -0.639697 -4.18661 8.58443 1.69776 8.45274 -89.4961 9.95992 3.61272 0.70431 -1.70611 3.6402 0.544422 -24.2736 3.2339 1.75853 -4.26101 3.23388 1.75853 91.1022 -21.8258 -107.847 26.0121 -5.5242 -9.722 -38.119 -9.08287 -85.9185 -32.1028 2.54494 -18.7738 -82.6006 -57.1047 90.4538 -4.42626 13.4356 13.0442 47.7489 -19.3496 -94.9864 4.86552 -0.806362 -15.6514 28.5397 -3.52591 17.9838 -5.85462 -9.79502 -15.7178 
-69.2311 78.334 16.6327 -75.5257 28.2045 -108.817 -169.612 51.1931 93.6103 -113.489 4.99587 7.2451 74.0289 7.23795 9.65971 29.9892 5.47308 -9.55521 173.368 10.0947 97.3155 -50.5047 -8.23319 1.99075 123.04 -24.6643 9.36895 1.07481 -3.51179 7.63758 1.96442 8.46858 -89.2811 9.91997 4.24163 1.08186 -1.74434 4.28512 0.893811 -24.3211 3.72022 2.30807 -4.30842 3.72022 2.30807 90.5481 -20.4295 -109.783 24.9657 3.94774 -16.1197 -36.3152 -6.95586 -88.4043 -29.2666 2.84064 -21.2213 -81.0638 -56.6765 92.5789 -11.2189 13.0856 25.8957 48.1594 -22.2368 -97.3643 5.55083 -0.89729 -16.0272 30.5268 -4.28141 17.1364 -6.99809 -10.3305 -15.4758 
-75.4689 79.4619 15.0073 -73.6519 30.7772 -111.599 -168.063 58.0133 89.5057 -109.4 5.13197 6.46654 76.5577 8.48926 7.95504 31.6838 5.0104 -9.22213 172.744 4.66283 92.8468 -45.3191 -12.8371 0.616694 117.247 -23.3455 6.86482 7.3422 -3.40187 7.77819 2.2935 8.44691 -88.9954 9.94825 5.02733 1.58307 -1.71366 5.0921 1.35975 -24.3024 4.31895 3.02286 -4.28979 4.31895 3.02285 90.4207 -18.9613 -110.843 24.1464 10.41 -20.7064 -36.7221 -7.36648 -91.4044 -30.454 2.83488 -20.7124 -79.6207 -55.9595 94.5853 -16.2167 14.5954 35.6495 46.046 -24.8893 -99.78 6.65278 -1.06129 -16.6173 31.0168 -5.58158 16.7994 -7.31676 -11.4239 -15.974 
-82.1936 81.5026 12.1619 -72.7086 32.8261 -113.916 -167.094 61.1347 86.6415 -100.787 4.57828 4.94062 78.569 8.98943 3.99812 32.3817 4.72605 -8.91061 172.296 -1.40373 89.058 -38.7717 -13.9319 -1.72689 105.961 -19.0842 4.63909 17.4946 -5.73305 13.0992 2.75111 8.43676 -88.7531 9.95174 6.04931 1.98044 -1.70621 6.13058 1.7114 -24.3174 5.1742 3.71039 -4.30477 5.17419 3.71038 91.1131 -17.0959 -110.189 25.3886 15.1161 -22.7995 -37.1069 -8.05667 -95.0177 -32.9131 3.03232 -20.3424 -79.621 -54.4677 94.5357 -21.3696 16.1711 42.4422 46.2219 -26.4267 -99.6054 7.13823 -1.16323 -17.2115 29.7252 -8.20533 16.9384 -6.01041 -13.9419 -15.7573 
-89.1801 83.5392 8.61373 -72.1891 33.883 -115.765 -166.536 61.5166 84.4805 -89.6485 4.54849 2.60027 82.5307 10.4377 2.35201 32.0297 4.40481 -8.24291 170.754 -7.71386 85.8476 -30.2727 -19.0683 -3.39764 88.6062 -13.794 -2.28337 27.5812 -5.99795 15.7788 3.14987 8.43396 -88.4432 9.93219 6.98461 2.5213 -1.72178 7.08876 2.21014 -24.3526 5.90377 4.50863 -4.33996 5.90376 4.50863 91.9121 -15.7406 -108.937 26.733 17.032 -22.165 -37.9253 -5.30489 -100.316 -33.0624 2.34856 -17.7649 -80.9638 -51.5888 92.4388 -25.0049 14.6739 46.5399 48.498 -27.5492 -99.2604 8.54932 -1.27752 -16.7403 32.019 -10.1857 16.3441 -9.6782 -15.344 -16.6745 
-96.0068 85.4907 4.82029 -71.3887 34.5729 -117.417 -167.462 60.3207 84.0618 -76.9913 6.23905 -0.0050371 82.8737 10.2557 0.231908 31.7663 2.83985 -5.38009 170.161 -10.5763 83.6051 -26.7845 -22.1958 -5.32061 71.6923 -5.92257 -4.11936 29.4881 -5.19566 14.0064 3.47097 8.41196 -88.1176 9.94741 7.77247 3.10123 -1.70308 7.90133 2.75443 -24.3483 6.48118 5.29941 -4.33563 6.48118 5.29941 92.8426 -14.2195 -107.353 28.9872 17.8415 -21.1559 -38.8796 -4.39785 -102.351 -33.7488 2.22334 -17.201 -82.5596 -48.8556 89.8223 -26.9162 12.6732 48.0014 49.3822 -28.0305 -99.6293 8.41588 -1.30908 -17.2186 34.5656 -12.0411 15.6877 -13.0502 -16.6058 -17.4454 
-102.677 86.6455 1.06249 -70.122 34.2058 -119.497 -168.491 58.4871 83.2366 -64.3352 8.20895 -2.70896 79.8765 8.8494 -0.87168 32.5191 1.08577 -2.35298 171.286 -11.1267 82.892 -28.6615 -19.9471 -7.41217 66.0244 -2.79623 -1.58724 11.956 -1.54786 4.97229 3.54218 8.3082 -87.7612 10.1233 8.07811 3.76756 -1.52687 8.23598 3.40663 -24.1631 6.57327 6.02558 -4.15045 6.57329 6.02558 93.1288 -13.5295 -106.958 30.169 17.4397 -19.6037 -38.8202 -3.74323 -104.327 -34.7776 1.97383 -15.8557 -83.7868 -47.3342 87.7735 -26.7936 11.5899 46.8884 48.9574 -28.2009 -100.629 10.0984 -1.49738 -17.1924 35.6349 -13.773 13.581 -13.8085 -17.4006 -16.594 
-108.801 86.8639 -2.73966 -69.7087 33.9681 -119.032 -170.002 55.3075 84.5734 -53.613 7.4263 -4.71981 77.9339 7.62912 -3.61208 34.2617 -1.44641 2.18682 174.543 -10.6661 85.7936 -36.4243 -16.053 -7.7041 68.8275 -4.39912 -3.82611 14.4513 -2.07968 5.588 3.44449 8.22774 -87.6902 10.2799 7.91769 3.90778 -1.3716 8.08186 3.55397 -23.9964 6.37845 6.11008 -3.98374 6.37845 6.11008 92.71 -15.4543 -107.056 29.5185 13.886 -17.8637 -37.2271 -3.34137 -105.597 -37.6632 2.08429 -14.9521 -84.122 -49.0314 87.453 -23.2865 12.4378 42.2013 48.3146 -28.2872 -101.591 11.2636 -1.59577 -16.9102 38.3473 -14.8665 10.745 -14.1177 -17.53 -14.6318 
-114.834 86.5558 -6.48706 -71.7067 34.1518 -117.471 -171.644 49.7196 85.5591 -45.7321 8.78796 -5.48044 75.2487 6.36667 -4.53999 33.1086 -1.87976 2.99446 176.464 -9.0932 87.8415 -49.0703 -13.0691 -6.37077 71.4503 -5.87214 -4.26157 14.4366 -1.96329 5.35511 3.18647 8.39595 -87.7598 9.95269 7.36784 3.84383 -1.70202 7.52973 3.51465 -24.3079 5.87332 5.88253 -4.29521 5.8733 5.88251 91.8197 -17.8557 -108.066 30.1782 10.2766 -14.6738 -38.1077 -4.20877 -101.25 -39.6651 2.42341 -15.5175 -84.5208 -51.5835 87.1524 -19.4638 15.5147 32.4916 47.1589 -26.5763 -100.394 10.8022 -1.33888 -15.1928 39.2842 -15.2334 8.63779 -12.7849 -17.1672 -13.8388 
